<?xml version="1.0" encoding="UTF-8" standalone="no"?>
<svg
   width="170"
   height="38.233418"
   viewBox="0 0 44.979141 10.115926"
   version="1.1"
   id="svg5"
   inkscape:version="1.2 (dc2aedaf03, 2022-05-15)"
   sodipodi:docname="gisanda_logo.svg"
   xml:space="preserve"
   xmlns:inkscape="http://www.inkscape.org/namespaces/inkscape"
   xmlns:sodipodi="http://sodipodi.sourceforge.net/DTD/sodipodi-0.dtd"
   xmlns:xlink="http://www.w3.org/1999/xlink"
   xmlns="http://www.w3.org/2000/svg"
   xmlns:svg="http://www.w3.org/2000/svg"
   xmlns:rdf="http://www.w3.org/1999/02/22-rdf-syntax-ns#"
   xmlns:cc="http://creativecommons.org/ns#"
   xmlns:dc="http://purl.org/dc/elements/1.1/"><metadata
     id="metadata135"><rdf:RDF><cc:Work
         rdf:about=""><dc:format>image/svg+xml</dc:format><dc:type
           rdf:resource="http://purl.org/dc/dcmitype/StillImage" /></cc:Work></rdf:RDF></metadata><sodipodi:namedview
     id="namedview7"
     pagecolor="#ffffff"
     bordercolor="#666666"
     borderopacity="1.0"
     inkscape:pageshadow="2"
     inkscape:pageopacity="0.0"
     inkscape:pagecheckerboard="true"
     inkscape:document-units="px"
     showgrid="false"
     inkscape:zoom="7.0702947"
     inkscape:cx="87.973702"
     inkscape:cy="25.741501"
     inkscape:window-width="1920"
     inkscape:window-height="1017"
     inkscape:window-x="-8"
     inkscape:window-y="-8"
     inkscape:window-maximized="1"
     inkscape:current-layer="text5256-7"
     inkscape:snap-page="true"
     inkscape:document-rotation="0"
     inkscape:snap-global="false"
     inkscape:object-paths="true"
     inkscape:showpageshadow="false"
     showborder="true"
     inkscape:deskcolor="#d1d1d1" /><defs
     id="defs2"><style
       type="text/css"
       id="style13"><![CDATA[
    .fil3 {fill:#4F4F4E}
    .fil2 {fill:#D74E22}
    .fil1 {fill:#E67B1B}
    .fil0 {fill:#F9B101}
   ]]></style><filter
       style="color-interpolation-filters:sRGB"
       inkscape:label="Drop Shadow"
       id="filter1257"><feFlood
         flood-opacity="0.188235"
         flood-color="rgb(0,0,0)"
         result="flood"
         id="feFlood1247" /><feComposite
         in="flood"
         in2="SourceGraphic"
         operator="in"
         result="composite1"
         id="feComposite1249" /><feGaussianBlur
         in="composite1"
         stdDeviation="3"
         result="blur"
         id="feGaussianBlur1251" /><feOffset
         dx="2.77556e-17"
         dy="4.19162"
         result="offset"
         id="feOffset1253" /><feComposite
         in="SourceGraphic"
         in2="offset"
         operator="over"
         result="composite2"
         id="feComposite1255" /></filter><filter
       style="color-interpolation-filters:sRGB"
       inkscape:label="Drop Shadow"
       id="filter1776"><feFlood
         flood-opacity="0.498039"
         flood-color="rgb(0,0,0)"
         result="flood"
         id="feFlood1766" /><feComposite
         in="flood"
         in2="SourceGraphic"
         operator="in"
         result="composite1"
         id="feComposite1768" /><feGaussianBlur
         in="composite1"
         stdDeviation="2"
         result="blur"
         id="feGaussianBlur1770" /><feOffset
         dx="2.77556e-17"
         dy="1"
         result="offset"
         id="feOffset1772" /><feComposite
         in="SourceGraphic"
         in2="offset"
         operator="over"
         result="composite2"
         id="feComposite1774" /></filter><pattern
       id="EMFhbasepattern"
       patternUnits="userSpaceOnUse"
       width="6"
       height="6"
       x="0"
       y="0" /><pattern
       id="EMFhbasepattern-9"
       patternUnits="userSpaceOnUse"
       width="6"
       height="6"
       x="0"
       y="0" /><pattern
       id="EMFhbasepattern-0"
       patternUnits="userSpaceOnUse"
       width="6"
       height="6"
       x="0"
       y="0" /></defs><g
     inkscape:groupmode="layer"
     id="layer1"
     inkscape:label="Палитра"
     transform="translate(-0.53368885,-0.22643358)" /><g
     inkscape:groupmode="layer"
     id="layer2"
     inkscape:label="Фон сферы"
     style="display:none"
     transform="translate(-0.53368885,-0.22643358)"><image
       width="17.594959"
       height="16.716257"
       preserveAspectRatio="none"
       xlink:href="..%5C..%5C..%5C%D0%9C%D0%B0%D0%BA%D0%B5%D1%82%20%D1%81%D0%B0%D0%B9%D1%82%D0%B0%5Clogo.png"
       id="image6485"
       x="-1.1418251"
       y="-3.5342317"
       style="display:inline" /></g><g
     id="Layer_x0020_1"
     inkscape:label="Логотип"
     inkscape:groupmode="layer"
     transform="matrix(0.00458685,0,0,0.00458685,-0.53368885,-0.18515193)"
     style="display:inline"><metadata
       id="CorelCorpID_0Corel-Layer" /><path
       id="path7663"
       style="fill:#26484a;fill-opacity:0.4;stroke-width:140.692"
       d="m 960.18272,2149.5204 c 126.98728,19.6104 255.40468,-15.4051 333.52028,-73.9235 78.1155,-58.5186 122.9579,-181.109 106.4426,-283.4769 -16.5153,-102.3679 -82.7821,-208.3322 -184.2537,-294.5839 -101.4717,-86.2516 -237.02568,-146.5515 -364.74438,-160.6322 -134.8865,-14.8709 -235.9277,1.8518 -331.4213,80.9081 -75.18272,62.2416 -103.95265,156.2416 -87.43729,258.6095 9.3354,57.8641 34.14127,119.6429 68.98719,179.2555 -27.66448,-49.1525 -46.9858,-99.6807 -53.4373,-144.0215 -13.32959,-91.6123 18.3305,-213.0464 91.291,-263.7661 72.9604,-50.7198 191.2498,-85.7673 307.761,-65.8833 116.511,19.884 256.00398,87.5753 347.81508,166.4152 91.8113,78.8397 150.9315,178.7396 164.2612,270.352 13.3294,91.6124 -52.7138,214.3724 -125.6741,265.0921 -72.9605,50.7198 -185.9094,75.1723 -302.42058,55.2885 -23.8017,-4.062 -45.0283,-13.482 -67.8764,-19.4374 32.5219,10.1715 64.3588,24.7344 97.1867,29.8039 z m -354.3151,-163.7673 c -15.0217,-13.9285 -25.2924,-31.3207 -38.5661,-46.9583 13.3491,14.6238 20.5083,32.1644 36.0978,45.4156 0.7377,0.627 1.7279,0.9185 2.4683,1.5427 z"
       sodipodi:nodetypes="ssssssscsssscsscsccsc" /><path
       id="path6797"
       style="fill:#26484a;fill-opacity:0.5;stroke-width:198.385"
       d="m 1042.9333,2216.5024 c 179.0603,27.6519 360.1374,-21.7224 470.2853,-104.2371 110.1479,-82.5149 173.3787,-255.3755 150.0911,-399.7208 -23.2877,-144.3455 -116.7282,-293.762 -259.8099,-415.3825 -143.0817,-121.6205 -334.2215,-206.6472 -514.31318,-226.5019 -190.1988,-20.969 -332.6734,2.6111 -467.32577,114.0858 -106.01249,87.7646 -146.57995,220.3108 -123.29224,364.6561 13.16352,81.5921 48.14143,168.7043 97.27645,252.762 -39.00873,-69.3082 -66.25304,-140.5564 -75.35007,-203.0797 -18.79561,-129.1794 25.84719,-300.4095 128.72621,-371.9274 102.87892,-71.5182 269.67482,-120.9374 433.96302,-92.8997 164.28828,28.0375 360.98238,123.4868 490.44218,234.6561 129.4597,111.1692 212.8231,252.0346 231.6188,381.214 18.7953,129.1795 -74.3298,302.2791 -177.2087,373.7972 -102.879,71.5181 -262.1443,105.9979 -426.4327,77.9603 -33.56188,-5.7277 -63.49278,-19.0103 -95.71018,-27.4079 45.8581,14.3424 90.7501,34.8771 137.03968,42.0255 z M 543.32582,1985.5797 c -21.1815,-19.6401 -35.6639,-44.1642 -54.38076,-66.2142 18.82316,20.6204 28.91816,45.354 50.90036,64.039 1.0401,0.884 2.4364,1.2951 3.4804,2.1752 z"
       sodipodi:nodetypes="ssssssscsssscsscsccsc" /><path
       id="path6747"
       style="fill:#26484a;fill-opacity:0.9;stroke-width:289.552"
       d="m 2171.0541,1612.4897 c 86.6447,-148.8738 92.134,-343.9284 67.9262,-509.8742 C 2213.0551,924.89755 2112.7584,736.87368 1902.7113,560.38668 1692.664,383.89985 1439.8214,256.72005 1174.2032,243.75845 c -295.17958,-14.4041 -513.48488,35.1009 -683.41836,172.3309 -99.7674,77.4653 -200.6137,185.89543 -208.9685,241.44843 44.84,-97.7977 95.2056,-142.62233 248.53598,-248.58083 152.2765,-105.2302 407.7398,-143.5005 648.91868,-102.8145 241.179,40.6863 483.3514,144.0656 673.4011,305.38623 190.0497,161.3209 315.4162,312.15917 343.0086,499.61492 58.6032,287.8678 -24.6266,501.3461 -24.6266,501.3461 z"
       sodipodi:nodetypes="csssccssscc" /><path
       id="path6749"
       style="fill:#26484a;fill-opacity:0.7;stroke-width:280.512"
       d="m 1946.8293,1938.4343 c 82.7112,-146.3683 87.9512,-338.1402 64.8425,-501.2932 -24.7483,-174.727 -120.4916,-359.5864 -321.0026,-533.10319 C 1490.1579,730.52129 1248.7942,605.48189 995.23492,592.73843 713.45632,578.57675 505.06202,627.24859 342.84341,762.16905 247.60539,838.33064 151.33746,944.93592 143.36196,999.55398 186.16625,903.40219 234.24527,859.33194 380.61456,755.15669 525.97782,651.69748 769.84312,614.07126 1000.0726,654.07253 c 230.2296,40.00156 461.4076,141.64102 642.8291,300.24667 181.4216,158.6059 301.0965,306.9056 327.4363,491.2065 55.9426,283.023 -23.5087,492.9086 -23.5087,492.9086 z"
       sodipodi:nodetypes="csssccssscc" /><path
       id="path6751"
       style="fill:#26484a;fill-opacity:0.6;stroke-width:259.796"
       d="m 1748.2694,2065.3508 c 101.9461,-133.775 132.7203,-324.3643 111.4906,-476.6951 -22.736,-163.1371 -110.6945,-335.7346 -294.902,-497.7418 -184.2078,-162.007 -405.9462,-278.75237 -638.88868,-290.65054 -258.8672,-13.22231 -450.31707,32.22106 -599.3457,158.19205 -87.49423,71.10969 -169.00094,267.46069 -163.0704,357.20879 30.14558,-113.2296 63.30235,-266.4908 197.77039,-363.756 133.54377,-96.59663 357.58051,-131.72705 569.09001,-94.37911 211.50978,37.3482 423.89078,132.24577 590.56088,280.33091 166.6703,148.0853 276.6144,286.5482 300.8126,458.6241 51.3938,264.2497 -73.5177,468.8667 -73.5177,468.8667 z"
       sodipodi:nodetypes="csssccssscc" /><path
       id="path6676"
       style="fill:#26484a;fill-opacity:1;stroke-width:291.201"
       d="m 2162.7399,809.32029 c -9.718,-71.6573 -47.2098,-251.5227 -259.6566,-428.0097 -212.447,-176.4868 -408.3533,-254.7156 -677.0061,-267.6772 -249.47838,-28.239099 -550.93558,91.3555 -595.50758,136.6437 154.0162,-105.2302 412.39808,-143.5005 656.33238,-102.8145 243.9344,40.6863 426.9856,117.5505 619.2066,278.8711 166.2066,115.9376 256.6313,382.9866 256.6313,382.9866 z"
       sodipodi:nodetypes="csccscc" /><path
       id="path6536"
       style="fill:#26484a;fill-opacity:0.8;stroke-width:289.552"
       d="m 2067.2133,1794.211 c 86.6447,-148.8738 92.134,-343.9284 67.9262,-509.8742 -25.9252,-177.7179 -126.2219,-365.74175 -336.269,-542.22875 -210.0473,-176.48683 -462.8899,-303.66663 -728.5081,-316.62823 -295.17958,-14.4041 -513.48488,35.1009 -683.41835,172.3309 -99.7674,77.4653 -200.6137,185.89543 -208.9685,241.44843 44.84,-97.7977 95.2056,-142.62233 248.536,-248.58083 152.27647,-105.2302 407.73977,-143.5005 648.91865,-102.8145 241.179,40.6863 483.3514,144.0656 673.4011,305.38623 190.0497,161.3209 315.4162,312.15915 343.0086,499.61485 58.6032,287.8678 -24.6266,501.3461 -24.6266,501.3461 z"
       sodipodi:nodetypes="csssccssscc" /><ellipse
       style="fill:#429993;fill-opacity:1;stroke-width:61.9286"
       id="path3360"
       cx="670.45367"
       cy="1342.5187"
       rx="159.96181"
       ry="218.27092"
       transform="matrix(0.80012799,-0.59982931,0.76170621,0.64792256,0,0)" /><path
       id="ellipse4464"
       style="fill:#afd53f;fill-opacity:1;stroke-width:140.579"
       d="m 1459.47,151.42071 a 514.41335,349.75063 28.260595 0 0 -320.0731,60.72487 514.41335,349.75063 28.260595 0 0 87.9891,545.51011 514.41335,349.75063 28.260595 0 0 676.5361,104.55044 A 514.41335,349.75063 28.260595 0 0 1815.9329,316.69604 514.41335,349.75063 28.260595 0 0 1459.47,151.42071 Z m 40.5584,62.30215 a 377.68327,256.88642 28.306015 0 1 261.7141,121.44977 377.68327,256.88642 28.306015 0 1 64.5555,400.62661 377.68327,256.88642 28.306015 0 1 -496.6148,-76.72295 377.68327,256.88642 28.306015 0 1 -64.5554,-400.73924 377.68327,256.88642 28.306015 0 1 234.9006,-44.61419 z" /><path
       id="ellipse4952"
       style="fill:#afd53f;fill-opacity:1;stroke-width:212.371"
       d="M 1356.3842,69.853288 A 770.87852,532.63165 28.749059 0 0 883.09052,176.31902 770.87852,532.63165 28.749059 0 0 1037.4376,1009.2302 770.87852,532.63165 28.749059 0 0 2047.9044,1141.1576 770.87852,532.63165 28.749059 0 0 1893.5572,308.35902 770.87852,532.63165 28.749059 0 0 1356.3842,69.853288 Z m 57.5703,43.149562 a 647.41634,440.31299 28.296333 0 1 448.6206,207.97437 647.41634,440.31299 28.296333 0 1 110.7469,686.78838 647.41634,440.31299 28.296333 0 1 -851.3878,-131.47671 647.41634,440.31299 28.296333 0 1 -110.7469,-686.78842 647.41634,440.31299 28.296333 0 1 402.7672,-76.49762 z" /><path
       id="ellipse5147"
       style="fill:#afd53f;fill-opacity:0.9;stroke-width:256.874"
       d="M 1293.9693,50.362759 C 1062.1169,14.558274 827.65312,78.489592 685.03052,185.332 542.40782,292.17442 460.53483,515.99937 490.6883,702.90186 c 30.15362,186.90251 151.14292,380.37134 336.40912,537.84904 185.26618,157.4776 432.75958,267.5727 665.94748,293.2811 246.2748,27.1512 430.755,-3.381 605.1067,-147.7216 137.268,-113.64 189.7959,-285.2646 159.6423,-472.16703 -17.0445,-105.64785 -62.3349,-218.44318 -125.9563,-327.28351 50.5096,89.74226 85.7863,181.99651 97.5654,262.95343 24.3371,167.26521 -22.263,325.48571 -155.4737,418.08921 -133.2106,92.6037 -360.3872,164.0628 -573.1123,127.7588 -212.7253,-36.3038 -426.3266,-137.4848 -593.95478,-281.43 C 739.23412,970.28616 631.29272,795.35941 606.95562,628.0942 582.61882,460.829 662.11612,262.83889 795.32672,170.23528 928.53732,77.631644 1134.7587,32.986127 1347.4838,69.289998 c 43.457,7.4164 82.2124,24.615157 123.9284,35.488572 -59.3784,-18.571061 -117.5057,-45.159833 -177.4429,-54.415811 z m 646.906,299.005321 c 27.4264,25.43047 46.1786,57.18502 70.4138,85.73588 -24.3728,-26.69968 -37.4441,-58.72542 -65.9073,-82.91933 -1.3467,-1.14467 -3.1547,-1.67706 -4.5065,-2.81655 z"
       sodipodi:nodetypes="ssssssscsssscsscsccsc" /><path
       id="path6528"
       style="fill:#afd53f;fill-opacity:0.8;stroke-width:295.401"
       d="M 503.20822,313.89663 C 378.30994,415.63044 296.14756,624.54509 320.82341,839.26239 c 24.74588,215.32671 144.56029,419.78991 359.25921,599.49831 214.6991,179.7083 500.24398,311.2865 771.74508,324.4847 301.7169,14.667 482.1337,-28.3215 678.8752,-199.3445 146.8377,-127.6427 169.3376,-335.784 168.0474,-438.9311 L 2279.674,992.63555 c 28.2034,190.87745 -29.8791,405.75725 -179.1537,523.67105 -146.8039,115.9623 -411.5221,193.692 -658.0424,152.2631 C 1195.9575,1627.1409 948.42182,1521.8746 754.16292,1357.6091 559.90422,1193.3437 434.81433,993.72293 406.61085,802.84535 355.97185,569.13565 462.68721,337.4657 617.06062,231.78949 Z"
       sodipodi:nodetypes="cssssccsssccc" /><path
       id="path6530"
       style="fill:#afd53f;fill-opacity:0.7;stroke-width:312.478"
       d="m 377.39177,468.38462 c -165.18856,128.2704 -191.012,305.45699 -165.33191,536.32278 25.75297,231.521 125.96803,437.0841 349.40476,630.3081 223.4369,193.2238 506.32528,332.6581 788.87558,346.8488 313.996,15.7702 552.6349,-52.7139 711.9227,-223.485 144.0725,-154.4589 206.8661,-313.2178 205.5234,-424.1224 l -1.1036,10.5898 c -32.6648,174.9461 -87.3422,271.1379 -242.6919,397.9197 C 1871.2124,1867.45 1597.163,1940.93 1340.61,1896.3853 1084.0568,1851.8407 826.44692,1738.6575 624.28232,1562.0381 422.11778,1385.4185 291.93704,1170.7846 262.58574,965.55151 200.24681,590.38174 377.39177,468.38462 377.39177,468.38462 Z"
       sodipodi:nodetypes="cssssccssscc" /><path
       id="path6532"
       style="fill:#afd53f;fill-opacity:0.6;stroke-width:289.552"
       d="m 196.70857,798.05859 c -86.6447,148.87378 -92.13403,343.92841 -67.9262,509.87421 25.92512,177.7179 126.22186,365.7418 336.26893,542.2288 210.04732,176.4868 462.88992,303.6666 728.5081,316.6282 295.1796,14.4041 513.4849,-35.1009 683.4184,-172.3309 99.7674,-77.4653 200.6137,-185.8954 208.9685,-241.4484 -44.84,97.7977 -95.2056,142.6223 -248.536,248.5808 -152.2765,105.2302 -407.7398,143.5005 -648.9187,102.8145 C 947.31262,2063.7195 705.14022,1960.3402 515.09052,1799.0196 325.04087,1637.6987 199.67437,1486.8604 172.08196,1299.4047 113.47875,1011.5369 196.70857,798.05859 196.70857,798.05859 Z"
       sodipodi:nodetypes="csssccssscc" /><path
       id="path6534"
       style="fill:#afd53f;fill-opacity:0.5;stroke-width:289.552"
       d="m 180.59297,1545.8339 c 9.60812,71.6573 46.67646,251.5227 256.72353,428.0097 210.04732,176.4868 403.74072,254.7156 669.3589,267.6772 246.6604,28.2391 544.7125,-91.3555 588.781,-136.6437 -152.2765,105.2302 -407.7398,143.5005 -648.9187,102.8145 C 805.35872,2167.0053 624.37512,2090.1411 434.32548,1928.8205 269.99619,1812.8829 180.59297,1545.8339 180.59297,1545.8339 Z"
       sodipodi:nodetypes="csccscc" /><g
       aria-label="АНДА"
       id="text5470-3"
       style="font-size:2307.32px;font-family:Haettenschweiler;-inkscape-font-specification:Haettenschweiler;letter-spacing:57.683px;display:inline;fill:#afd53f;stroke-width:134.983"><path
         d="m 6267.5706,1964.474 h -351.5058 l -59.7109,-433.7491 h -158.8536 l -59.7109,433.7491 H 5286.2836 L 5552.1662,348.8993 h 449.5218 z m -440.5089,-657.9467 -50.6979,-482.19388 -48.4447,482.19388 z"
         id="path313" /><path
         d="m 7184.8656,1964.474 h -354.8857 v -775.1153 h -99.1427 V 1964.474 H 6375.9516 V 348.8993 h 354.8856 v 644.42729 h 99.1427 V 348.8993 h 354.8857 z"
         id="path315" /><path
         d="M 8797.2857,2310.3467 H 8531.4031 V 1964.474 h -964.3877 v 345.8727 h -248.9833 v -599.3625 h 138.5744 q 104.7758,-150.9672 157.727,-334.6064 54.0778,-183.6393 63.0908,-332.3533 10.1396,-148.71395 10.1396,-695.1252 h 843.8392 v 1362.0849 h 265.8826 z M 8185.5304,1710.9842 V 603.51568 h -168.9932 q 0,716.53102 -198.2853,1107.46852 z"
         id="path317" /><path
         d="m 9893.7132,1964.474 h -351.5058 l -59.7109,-433.7491 H 9323.6429 L 9263.932,1964.474 H 8912.4262 L 9178.3088,348.8993 h 449.5218 z m -440.5089,-657.9467 -50.6979,-482.19388 -48.4447,482.19388 z"
         id="path319" /></g><g
       aria-label="ГИС"
       id="text5256-7"
       style="font-size:2307.32px;font-family:Haettenschweiler;-inkscape-font-specification:Haettenschweiler;letter-spacing:57.683px;display:inline;fill:#e6e6e6;stroke-width:140.536"><path
         d="M 3253.2811,340.21131 V 547.5096 H 2946.8402 V 1955.786 H 2589.7013 V 340.21131 Z"
         id="path306" /><path
         d="M 3374.0549,1955.786 V 340.21131 h 295.1747 v 736.81019 l 225.3242,-736.81019 h 381.9246 V 1955.786 H 3980.177 v -860.7385 l -242.2235,860.7385 z"
         id="path308" /><path
         d="M 5185.887,904.6485 H 4862.5467 V 584.6881 q 0,-39.43174 -48.4447,-39.43174 -50.698,0 -50.698,39.43174 v 1120.988 q 0,39.4318 50.698,39.4318 48.4447,0 48.4447,-39.4318 v -398.8239 h 323.3403 v 410.0901 q 0,114.9154 -112.6622,184.7659 -112.6621,68.7239 -254.6163,68.7239 -410.0901,0 -410.0901,-290.6683 V 639.89253 q 0,-314.32729 410.0901,-314.32729 367.2785,0 367.2785,286.16177 z"
         id="path310" /></g></g></svg>
